<?xml version="1.0" encoding="UTF-8"?>
<svg id="Layer_2" data-name="Layer 2" xmlns="http://www.w3.org/2000/svg" viewBox="0 0 1279.78 1258">
  <g id="Layer_1-2">
    <g>
      <path class="cls-1" d="m408.77,453.64c26.18,8.08,70.97-6.06,99.96-31.49,29.16-25.46,31.65-52.62,5.46-60.7-26.01-8.12-71,5.9-100.13,31.52-29.16,25.46-31.48,52.58-5.29,60.66Z"/>
      <path class="cls-1" d="m463.32,216.54c26.42,8.37,71.21-5.77,100.54-31.27,29.29-25.66,31.7-53.14,5.48-61.38-26.09-8.44-71.24,5.61-100.54,31.27-29.29,25.66-31.7,53.14-5.48,61.38Z"/>
      <path class="cls-1" d="m780.22,316.17c25.85,8.15,70.12-5.89,99.12-31.31,29.03-25.26,31.68-52.45,6-60.64-25.68-8.19-70.16,5.72-99.32,31.18-28.99,25.42-31.48,52.58-5.8,60.77Z"/>
      <path class="cls-1" d="m622.54,266.62c26.01,8.12,70.67-5.83,99.83-31.29,29.16-25.46,31.78-52.81,5.73-61.09-26.05-8.28-70.67,5.83-99.83,31.29-29.33,25.49-31.78,52.81-5.73,61.09Z"/>
      <path class="cls-1" d="m672.47,410.54c-25.84-8.15-70.46,5.96-99.45,31.38-29.16,25.46-31.51,52.42-5.54,60.37,26.01,8.12,70.42-6.12,99.28-31.34,28.99-25.42,31.51-52.42,5.71-60.41Z"/>
      <path class="cls-1" d="m248.72,404.58c26.35,8.05,71.34-5.97,100.63-31.63,29.29-25.66,31.57-52.94,5.18-61.15-26.39-8.21-71.51,6.01-100.8,31.66-29.29,25.66-31.57,52.94-5.02,61.11Z"/>
      <path class="cls-1" d="m1277.87,782.81l-124.59-549.22c-6.32-27.88-27.64-50.4-55.91-59.07L540.65,3.78c-28.26-8.67-59.19-2.18-81.13,17.01L27.17,399c-21.95,19.2-31.58,48.21-25.26,76.1l124.59,549.2c6.32,27.88,27.63,50.39,55.9,59.06l556.91,170.86c28.27,8.67,59.21,2.18,81.16-17.03l432.17-378.3c21.94-19.2,31.56-48.2,25.24-76.08ZM75.86,391.47L487.13,31.49c8.93-7.82,21.53-10.46,33.04-6.93l529.67,162.61c21.15,6.49,27.07,32.57,10.64,46.94l-376.63,329.59c-30.3,26.52-73.02,35.48-112.05,23.51L86.52,438.41c-21.16-6.49-27.08-32.57-10.65-46.95Zm624.05,823.48l-230.88-70.8-290.78-89.3c-11.5-3.53-20.17-12.7-22.75-24.04L37.03,508.52c-4.73-20.86,15.8-38.83,36.95-32.34l485.29,148.81c39.05,11.97,68.49,43.07,77.22,81.58l106.73,470.49c5.55,24.45-18.51,45.5-43.3,37.9Zm544.13-383.65l-404.76,354.37c-19.25,16.85-50.25,7.34-55.79-17.11l-106.73-470.47c-8.73-38.5,4.56-78.56,34.86-105.08l376.6-329.57c16.43-14.37,42.87-6.26,47.61,14.6l118.48,522.28c2.57,11.35-1.34,23.15-10.27,30.97Z"/>
      <path class="cls-1" d="m377.72,788.1c-32.98-10.05-53.75,8.05-46.4,40.44,7.35,32.39,40.06,66.93,73.04,76.98,32.81,10.08,53.42-7.98,46.03-40.53-7.35-32.39-39.86-66.8-72.67-76.88Z"/>
      <path class="cls-1" d="m229.54,888.58c-17.94,15.81-9.53,52.9,18.81,82.92,28.54,30.15,66.25,41.58,84.22,25.94,18.11-15.84,9.66-53.09-18.85-83.08-28.34-30.02-66.08-41.62-84.19-25.78Z"/>
      <path class="cls-1" d="m512.63,975.28c-18.11,15.84-9.66,53.09,18.85,83.08,28.34,30.02,66.08,41.62,84.19,25.78,17.98-15.65,9.53-52.9-18.81-82.92-28.54-30.15-66.25-41.58-84.22-25.94Z"/>
      <path class="cls-1" d="m269.27,718.39c18.11-15.84,9.69-52.93-18.85-83.08-28.37-30.19-66.08-41.62-84.19-25.78-17.94,15.81-9.53,52.9,18.81,82.92,28.54,30.15,66.25,41.58,84.22,25.94Z"/>
      <path class="cls-1" d="m552.36,805.09c17.98-15.65,9.53-52.9-18.81-82.92-28.54-30.15-66.28-41.75-84.22-25.94-18.11,15.84-9.66,53.09,18.85,83.08,28.34,30.02,66.08,41.62,84.19,25.78Z"/>
      <path class="cls-1" d="m947.17,668.66c-25.46,22.31-40.25,66.81-32.9,99.2,7.35,32.39,34.07,40.53,59.54,18.22,25.63-22.34,40.25-66.81,32.9-99.2-7.35-32.39-34.07-40.53-59.54-18.22Z"/>
      <path class="cls-1" d="m1061.93,421.65c-23.33-7.15-52.45,18.47-65.38,57.15-12.72,38.81-4.31,75.89,18.85,83.08,23.32,7.15,52.45-18.47,65.38-57.15,12.89-38.84,4.48-75.93-18.85-83.08Z"/>
      <path class="cls-1" d="m905.61,893.02c-23.33-7.15-52.62,18.5-65.38,57.15-12.93,38.68-4.48,75.93,18.85,83.08,23.12,7.03,52.41-18.63,65.34-57.31,12.93-38.68,4.48-75.93-18.81-82.92Z"/>
    </g>
  </g>
</svg>
